<svg width="500" height="500" viewBox="0 0 500 500" xml:space="preserve" xmlns:xlink="http://www.w3.org/1999/xlink" xmlns="http://www.w3.org/2000/svg" xmlns:svg="http://www.w3.org/2000/svg">
   <linearGradient id="linearGradient21075">
   <stop style="stop-color:#e9eef5;stop-opacity:1;" offset="0" id="stop21073" />
   <stop style="stop-color:#6a6f73;stop-opacity:1;" offset="1" id="stop21071" />
   </linearGradient>
   <linearGradient xlink:href="#linearGradient21075" id="linearGradient21077" x1="440.11774" y1="73.79451" x2="430.57193" y2="925.94604" gradientUnits="userSpaceOnUse"  gradientTransform="matrix(0.87198503,0,0,0.87031134,-70.687784,-172.229)" />
    <linearGradient id="linearGradient1591">
          <stop style="stop-color:#acb3bf;stop-opacity:0.69794726;" offset="0" id="stop1589" />
          <stop style="stop-color:#2c2d2e;stop-opacity:0.98826981;" offset="1" id="stop1587" />
    </linearGradient>
    <linearGradient id="linearGradient1471">
          <stop style="stop-color:#c1d8fa;stop-opacity:1;" offset="0" id="stop1469" />
          <stop style="stop-color:#003fc6;stop-opacity:1;" offset="1" id="stop1467" />
    </linearGradient>
    <linearGradient id="linearGradient1037">
          <stop style="stop-color:#003fc6;stop-opacity:1;" offset="0" id="stop1033" />
          <stop style="stop-color:#b7d2fa;stop-opacity:1;" offset="1" id="stop1035" />
    </linearGradient>
    <linearGradient xlink:href="#linearGradient1037" id="linearGradient1039" x1="565.55945" y1="322.36969" x2="685.74377" y2="436.36969" gradientUnits="userSpaceOnUse" gradientTransform="matrix(3.3292418,0,0,3.326495,-1769.69,-1009.544)" />
    <linearGradient xlink:href="#linearGradient1471" id="linearGradient1473" x1="23.119436" y1="16.621147" x2="159.27524" y2="187.74098" gradientUnits="userSpaceOnUse" gradientTransform="matrix(3.4269071,0,0,3.4269081,137.64908,135.14494)" />
    <linearGradient xlink:href="#linearGradient1591" id="linearGradient1593" x1="23.119436" y1="16.621147" x2="159.27524" y2="187.74098" gradientUnits="userSpaceOnUse" gradientTransform="matrix(3.4269071,0,0,3.4269081,137.64908,135.14494)" />
    <rect width="750" height="750" x="-67.803169" y="-170.78946" fill="url(#linearGradient21077)" />
    <path d="m 208.41966,373.42233 c 2.4606,-2.25837 1.43501,-7.32602 -1.05248,-12.05655 l -15.27853,-39.48479 c -12.20115,4.34556 -23.07584,-0.68236 -27.32533,-9.91961 L 66.931011,58.942389 c -3.6615,-10.17178 0.83655,-21.22211 13.0941,-25.40766 l -6.87513,-18.63301 -44.199058,-0.0665 c -36.1251607,-3.76406 -40.824324,-57.14174 -0.49482,-62.22428 l 49.562598,-0.0808 c 38.396929,2.5801 52.719229,34.41974 63.280289,66.87534 12.74615,-0.55159 28.88339,8.73174 34.6084,17.93275 L 291.02722,225.95211 c 17.40923,35.19599 -10.0659,63.10419 -41.01362,72.87421 l 10.4019,25.94287 c 9.88206,-11.69194 24.34797,-18.61073 36.63518,-18.74909 l 94.72869,-0.29091 c 21.564,0.89998 41.37024,20.94812 44.52348,42.46245 l 6.48413,0.59999 c 19.00676,1.10202 57.20881,29.40346 57.21302,67.36387 -0.17565,12.44104 -5.25334,14.17956 -10.23344,14.38261 l -12.65628,0.40145 c -7.55349,29.16504 -48.59671,28.42486 -58.80804,-0.0533 l -153.38826,-0.0881 c -40.16147,58.29198 -114.79333,-16.37833 -56.49432,-57.37519 z m 21.30391,15.15876 c -10.07553,0.11854 -21.32363,6.50166 -21.79723,21.43098 -0.22362,12.81762 11.84189,20.33715 21.83711,20.39224 27.24107,-0.25703 26.76315,-41.45016 -0.0426,-41.82322 z m 211.64085,-18.24073 -206.33,-1.97904 c 23.97143,4.49385 35.85659,24.95363 35.77203,40.99685 H 477.4668 c -0.35462,-12.62215 -20.10595,-38.11194 -36.10238,-39.01781 z m -195.47018,-25.05954 -15.17259,-38.39968 -19.46665,6.96298 12.94985,33.13809 z m 168.0252,1.96012 c 0.0557,-5.96454 -11.37366,-19.09234 -19.73365,-19.23353 H 293.1881 c -6.84688,0.1198 -19.68125,12.0421 -19.72756,19.2488 z M 254.49728,273.4018 c 12.48715,-7.23641 18.96978,-23.51565 15.02103,-37.72162 C 268.26075,231.15604 156.5056,47.259729 156.5056,47.259729 c -2.73186,-5.03371 -10.25458,-8.38295 -15.69427,-6.56382 L 87.421091,53.064539 184.56148,301.88231 Z m -63.14002,-7.10844 -35.73693,-92.77438 c -4.18225,-11.8703 15.83048,-19.19735 19.70223,-7.44079 l 35.88986,93.13198 c 3.95884,11.73606 -14.94656,18.91136 -19.85516,7.08319 z M 119.98831,23.123069 C 114.46625,0.48106869 99.856821,-25.556491 78.553291,-26.310391 l -52.532168,0.96913 c -7.069311,0.13713 -6.363634,17.8362897 0,17.6340997 l 49.928618,1.30447 c 7.67496,1.20681 13.28851,6.57835999 16.67142,15.57281 l 8.100569,19.1158603 z" fill="url(#linearGradient1039)" />
    </svg>