<?xml version="1.0" encoding="UTF-8" standalone="no"?>
<svg
   width="860.10651"
   height="861.76056"
   viewBox="0 0 860.10651 861.76056"
   xml:space="preserve"
   version="1.1"
   id="svg7864"
   xmlns:xlink="http://www.w3.org/1999/xlink"
   xmlns="http://www.w3.org/2000/svg"
   xmlns:svg="http://www.w3.org/2000/svg"><defs
   id="defs7868"><linearGradient
     id="linearGradient21075"><stop
       style="stop-color:#e2eaf5;stop-opacity:1;"
       offset="0"
       id="stop21073" /><stop
       style="stop-color:#7d8287;stop-opacity:1;"
       offset="1"
       id="stop21071" /></linearGradient><linearGradient
     xlink:href="#linearGradient21075"
     id="linearGradient21077"
     x1="16.540516"
     y1="19.021601"
     x2="759.20941"
     y2="779.88495"
     gradientUnits="userSpaceOnUse"
     gradientTransform="translate(-3.3081019,-1.6540509)" /></defs>
    <linearGradient
   id="linearGradient1591">
        <stop
   style="stop-color:#acb3bf;stop-opacity:0.69794726;"
   offset="0"
   id="stop1589" />
        <stop
   style="stop-color:#2c2d2e;stop-opacity:0.98826981;"
   offset="1"
   id="stop1587" />
    </linearGradient>
    <linearGradient
   id="linearGradient1471">
        <stop
   style="stop-color:#c1d8fa;stop-opacity:1;"
   offset="0"
   id="stop1469" />
        <stop
   style="stop-color:#003fc6;stop-opacity:1;"
   offset="1"
   id="stop1467" />
    </linearGradient>
    <linearGradient
   id="linearGradient1037">
        <stop
   style="stop-color:#003fc6;stop-opacity:1;"
   offset="0"
   id="stop1033" />
        <stop
   style="stop-color:#b7d2fa;stop-opacity:1;"
   offset="1"
   id="stop1035" />
    </linearGradient>
    <linearGradient
   xlink:href="#linearGradient1037"
   id="linearGradient1039"
   x1="565.55945"
   y1="322.36969"
   x2="685.74377"
   y2="436.36969"
   gradientUnits="userSpaceOnUse"
   gradientTransform="matrix(2.7889705,0,0,2.8103826,-1264.9879,-583.59246)" />
    <linearGradient
   xlink:href="#linearGradient1471"
   id="linearGradient1473"
   x1="23.119436"
   y1="16.621147"
   x2="159.27524"
   y2="187.74098"
   gradientUnits="userSpaceOnUse"
   gradientTransform="matrix(3.4269071,0,0,3.4269081,137.64908,135.14494)" />
    <linearGradient
   xlink:href="#linearGradient1591"
   id="linearGradient1593"
   x1="23.119436"
   y1="16.621147"
   x2="159.27524"
   y2="187.74098"
   gradientUnits="userSpaceOnUse"
   gradientTransform="matrix(3.4269071,0,0,3.4269081,137.64908,135.14494)" />
    
    
    
    
    <rect
   style="fill:url(#linearGradient21077);fill-opacity:1;stroke:none;stroke-width:0;stroke-linecap:square;stroke-miterlimit:3;stroke-dasharray:none;paint-order:markers stroke fill"
   id="rect21068"
   width="860.10651"
   height="861.76056"
   x="0"
   y="0" /><path
   d="m 392.11301,584.80381 c 2.06129,-1.90798 1.20214,-6.18937 -0.88168,-10.18595 l -12.79912,-33.35865 c -10.22114,3.67134 -19.33108,-0.57649 -22.89096,-8.38056 L 273.58522,319.11607 c -3.06731,-8.59361 0.70079,-17.92946 10.96918,-21.46561 l -5.75943,-15.74206 -37.02641,-0.0562 c -30.26275,-3.18004 -34.19933,-48.27607 -0.41452,-52.57004 l 41.51955,-0.0683 c 32.16586,2.17979 44.16393,29.07945 53.01113,56.4995 10.6777,-0.46601 24.19618,7.37699 28.99213,15.15044 l 96.43812,159.35006 c 14.58405,29.73526 -8.4324,53.31345 -34.35791,61.56763 l 8.71388,21.91778 c 8.27839,-9.87791 20.39677,-15.72324 30.69,-15.84013 l 79.35607,-0.24578 c 18.06458,0.76035 34.65665,17.69798 37.29818,35.87432 l 5.43188,0.5069 c 15.92234,0.93104 47.92494,24.84145 47.92846,56.91223 -0.14714,10.51079 -4.40082,11.97957 -8.57275,12.15112 l -10.60241,0.33916 c -6.32771,24.64003 -40.71041,24.01469 -49.26464,-0.045 l -128.49633,-0.0744 c -33.64404,49.24786 -96.1646,-13.8372 -47.32639,-48.47331 z m 17.8467,12.80685 c -8.44047,0.10015 -17.86322,5.49291 -18.25996,18.10592 -0.18733,10.82894 9.92018,17.1818 18.29337,17.22834 22.82037,-0.21715 22.42001,-35.01908 -0.0357,-35.33426 z m 177.29566,-15.41065 -172.84666,-1.67198 c 20.08134,3.79662 30.03777,21.08202 29.96693,34.6361 h 173.12339 c -0.29707,-10.6638 -16.84314,-32.19879 -30.24366,-32.96412 z m -163.74917,-21.1715 -12.71038,-32.44189 -16.30759,5.88266 10.84834,27.99665 z m 140.75797,1.65601 c 0.0467,-5.03913 -9.52793,-16.13013 -16.53126,-16.24941 h -84.60773 c -5.73576,0.10121 -16.48736,10.17374 -16.52616,16.26231 z M 430.71313,500.30167 c 10.46073,-6.11367 15.89135,-19.86715 12.58341,-31.86904 -1.05348,-3.82221 -94.67295,-159.18663 -94.67295,-159.18663 -2.28853,-4.25272 -8.59046,-7.08232 -13.14739,-5.54543 l -44.72604,10.44961 81.37639,210.21319 z m -52.89362,-6.00555 -29.93752,-78.38025 c -3.50356,-10.0286 13.2615,-16.21884 16.50494,-6.28634 l 30.06563,78.68237 c 3.3164,9.91518 -12.52102,15.97722 -16.63305,5.98422 z M 318.03235,288.85419 c -4.62594,-19.12905 -16.86454,-41.12683 -34.71092,-41.76376 l -44.00722,0.81877 c -5.9221,0.11585 -5.33094,15.06895 0,14.89813 l 41.82617,1.10208 c 6.42947,1.01957 11.13205,5.55771 13.96598,13.15666 l 6.786,16.14999 z"
   fill="url(#linearGradient1039)"
   id="path7862"
   style="fill:url(#linearGradient1039);stroke:none;stroke-width:0;stroke-dasharray:none" />
</svg>
