<svg
   width="192"
   height="192"
   viewBox="0 0 192 192"
   xml:space="preserve"
   xmlns:xlink="http://www.w3.org/1999/xlink"
   xmlns="http://www.w3.org/2000/svg"
   xmlns:svg="http://www.w3.org/2000/svg">
    <linearGradient
   id="linearGradient1591">
        <stop
   style="stop-color:#acb3bf;stop-opacity:0.69794726;"
   offset="0"
   id="stop1589" />
        <stop
   style="stop-color:#2c2d2e;stop-opacity:0.98826981;"
   offset="1"
   id="stop1587" />
    </linearGradient>
    <linearGradient
   id="linearGradient1471">
        <stop
   style="stop-color:#c1d8fa;stop-opacity:1;"
   offset="0"
   id="stop1469" />
        <stop
   style="stop-color:#003fc6;stop-opacity:1;"
   offset="1"
   id="stop1467" />
    </linearGradient>
    <linearGradient
   id="linearGradient1037">
        <stop
   style="stop-color:#003fc6;stop-opacity:1;"
   offset="0"
   id="stop1033" />
        <stop
   style="stop-color:#b7d2fa;stop-opacity:1;"
   offset="1"
   id="stop1035" />
    </linearGradient>
    <linearGradient
   xlink:href="#linearGradient1037"
   id="linearGradient1039"
   x1="565.55945"
   y1="322.36969"
   x2="685.74377"
   y2="436.36969"
   gradientUnits="userSpaceOnUse"
   gradientTransform="matrix(0.61977118,0,0,0.6245295,-277.80026,-128.58449)" />
    <linearGradient
   xlink:href="#linearGradient1471"
   id="linearGradient1473"
   x1="23.119436"
   y1="16.621147"
   x2="159.27524"
   y2="187.74098"
   gradientUnits="userSpaceOnUse"
   gradientTransform="matrix(0.76153484,0,0,0.76153512,30.588711,30.03223)" />
    <linearGradient
   xlink:href="#linearGradient1591"
   id="linearGradient1593"
   x1="23.119436"
   y1="16.621147"
   x2="159.27524"
   y2="187.74098"
   gradientUnits="userSpaceOnUse"
   gradientTransform="matrix(0.76153484,0,0,0.76153512,30.588711,30.03223)" />
    <ellipse
   style="display:inline;fill:url(#linearGradient1593);fill-opacity:1;stroke:url(#linearGradient1473);stroke-width:5.77056;stroke-miterlimit:11.9;stroke-dasharray:none;stroke-opacity:1;paint-order:markers fill stroke"
   cx="96"
   cy="95.999992"
   rx="93.114723"
   ry="93.114716"
   id="ellipse6259" />
    <path
   d="m 42.836599,141.41754 -2.600612,1.02289 6.182611,6.40297 c 0.881856,0.86885 -0.0128,2.37114 -0.864304,1.59079 l -7.163998,-6.55727 -3.987188,4.15676 2.523574,1.86441 1.394286,-1.87236 5.794362,5.703 c 0.99298,1.03871 3.61078,0.61749 4.880764,-1.15969 1.315228,-1.80967 1.58588,-4.34121 -0.19564,-5.97345 z m 9.73379,10.07294 -3.639003,6.12139 c -2.183392,4.25754 8.265947,12.04561 10.889275,8.20853 l 4.098115,-7.1427 -2.415732,-1.67828 -3.361687,5.62347 c -1.494884,1.67457 -6.812891,-2.02829 -5.718872,-4.25698 l 3.0551,-5.5503 z m 87.439271,2.33211 -9.77078,4.71195 3.83621,9.6259 8.72775,-4.1138 -0.02,-2.77752 -5.84059,2.62163 -0.75953,-1.55261 4.89925,-2.2319 -0.2234,-2.3003 -5.41537,2.4737 -0.45757,-1.48581 4.76675,-2.26847 z m -72.78158,6.10071 -2.332536,2.28439 8.223959,3.10841 c 1.154748,0.40295 0.45308,2.01596 -0.637824,1.67989 l -8.529011,-2.23984 -2.05676,5.06669 2.924144,0.92107 1.254088,-2.82845 4.281451,1.59717 2.269368,3.27387 4.179772,0.37064 -3.070512,-2.63595 c 0,0 2.820492,-0.78776 3.244596,-2.95252 0.451804,-2.21395 -0.33812,-4.62673 -2.620632,-5.32917 z m 59.44422,0.8463 c -3.89247,0.21312 -11.6124,1.70872 -11.73509,4.10586 -0.15496,6.30977 2.59867,4.14881 7.23487,3.51726 1.21164,-0.21308 3.89619,-1.39917 4.02415,-0.17816 0.0348,1.3024 -5.47397,2.28675 -8.35953,2.80776 l -0.68097,2.76958 c 5.25659,-0.96098 12.61951,-2.59565 12.26045,-6.65908 -0.1788,-2.62565 -2.34525,-1.86806 -6.73723,-1.38399 -1.61303,0.20776 -3.40989,0.54467 -3.73144,-0.47565 -0.33644,-0.94503 3.71743,-1.82991 6.52155,-1.74352 z m -21.7616,4.50356 c -0.43139,-5e-5 -0.88085,0.0268 -1.34807,0.0812 -4.867498,0.62217 -7.582757,2.73897 -7.459789,5.95754 0.22004,3.06479 3.788135,5.78561 8.405739,5.25918 5.37829,-0.61258 7.81409,-2.71185 7.33656,-6.48092 -0.29372,-2.39589 -2.76444,-4.81644 -6.93444,-4.81693 z m -22.662874,0.1384 -1.442048,2.4562 8.687695,1.13105 c 1.212768,0.12624 1.400972,1.87975 0.265,1.80397 l -9.555083,-0.63155 -0.673244,5.8096 3.101312,-0.13044 -0.0136,-2.35917 7.965127,0.82245 c 1.4015,0.18976 3.216616,-1.80253 3.161404,-4.0104 -0.0388,-2.2622 -1.331488,-4.43155 -3.708336,-4.58945 z m 22.139054,3.09092 c 1.71277,0.0136 3.70695,0.81902 3.92401,2.5071 0.18724,1.47596 -1.91794,2.33647 -4.29223,2.42915 -2.13724,0.0732 -4.07844,-0.43222 -4.26296,-1.99009 -0.14452,-1.53799 2.38155,-2.81999 4.29378,-2.9382 0.11108,-0.005 0.2232,-0.009 0.3374,-0.008 z"
   fill="#e2e5eb"
   id="path6425"
   style="stroke-width:0.769408" />
    <path
   d="m 141.79219,32.132901 c -1.34264,-0.02292 -2.50322,0.478831 -3.4187,1.523983 -1.91897,2.349141 -1.21308,6.869015 2.44347,9.82795 4.25852,3.446768 7.42006,3.706568 9.63211,0.668136 1.55936,-2.123391 1.24492,-6.182099 -2.71,-9.366619 -2.19375,-1.727446 -4.22065,-2.623956 -5.94688,-2.65345 z m 0.39592,3.697013 c 1.19212,-0.03612 2.76616,0.672314 3.76072,1.563756 1.33624,1.213906 2.40704,3.410637 1.35267,4.864661 -0.86606,1.190003 -2.95327,0.28376 -4.71283,-1.364904 -1.57688,-1.491405 -2.62307,-3.253686 -1.69932,-4.500371 0.29332,-0.376096 0.75689,-0.546732 1.29876,-0.563142 z m 15.09061,8.41214 -4.40162,10.764935 c -1.01973,2.243676 0.90961,3.384444 2.5436,3.641336 l 11.13426,0.18932 -2.22469,-3.498164 -7.71246,-0.30224 2.61447,-7.720143 z m 11.04797,18.300546 -9.69065,4.011992 3.71294,9.081867 2.7516,-0.0256 -2.35411,-6.076851 1.56683,-0.7954 2.00747,5.098511 2.28631,-0.23544 -2.2247,-5.636199 1.48981,-0.478828 2.0506,4.960107 2.66378,0.26408 z m -4.97321,16.916554 0.23572,3.146592 3.00887,0.1734 0.12172,4.699216 -2.12301,3.375671 1.19092,4.15358 1.25563,-3.913368 c 0,0 1.74187,2.423512 3.84853,2.040996 2.16111,-0.37384 4.04685,-2.014752 3.84699,-4.465372 l -0.51458,-7.699459 -2.91182,-1.407868 0.20032,9.038927 c 0.0582,1.257148 -1.65186,1.172952 -1.74709,0.0015 l -1.09386,-9.016691 z"
   fill="#e2e5eb"
   id="path6427"
   style="stroke-width:0.769408" />
    <path
   d="m 85.132222,17.528243 c -4.0695,-0.05119 -10.963699,0.731473 -11.285227,2.957294 -0.735512,6.265949 2.204072,4.38419 6.877447,4.210843 1.225776,-0.09313 4.007724,-1.01008 4.022616,0.21794 -0.08528,1.299928 -5.659376,1.740523 -8.579855,1.975771 l -0.932092,2.688449 c 5.321291,-0.44035 12.79973,-1.342744 12.816626,-5.42303 0.06384,-2.631296 -2.161887,-2.091505 -6.578551,-2.040994 -1.624848,0.04839 -3.445251,0.208944 -3.671355,-0.838351 -0.24788,-0.97377 3.869079,-1.457461 6.652503,-1.096061 l 1.451288,-2.629589 c -0.24344,-0.01064 -0.502108,-0.01884 -0.7734,-0.02228 z m -19.94057,5.690285 c -1.598208,-0.0026 -3.457916,0.582824 -5.356819,2.013952 -3.930212,3.029668 -5.272648,6.254774 -3.622056,8.988007 1.661168,2.550001 6.065659,3.090733 9.824687,0.272028 4.378531,-3.282552 5.487311,-6.352384 3.264628,-9.382527 -0.823232,-1.132092 -2.29914,-1.888534 -4.11044,-1.89146 z m -0.4699,3.579295 c 0.776544,0.018 1.486148,0.286912 1.952,0.919482 0.870592,1.186479 -0.546968,3.010013 -2.565172,4.3047 -1.821644,1.156464 -3.748275,1.711094 -4.655827,0.451786 -0.863268,-1.2622 0.714148,-3.66954 2.318667,-4.750124 0.842164,-0.558946 1.951928,-0.948993 2.950332,-0.925844 z m -16.062758,5.946404 c -3.33856,2.077426 -9.470424,7.143575 -8.487407,9.318896 2.735812,5.644375 4.182195,2.402103 7.986699,-0.405652 0.972412,-0.776192 2.802276,-3.126561 3.471072,-2.110993 0.623699,1.132625 -3.789732,4.676128 -6.099412,6.536592 l 0.659396,2.774352 c 4.2021,-3.39964 9.956327,-8.415367 7.789499,-11.827586 -1.353152,-2.230671 -2.920907,-0.511682 -6.577011,2.047359 -1.329108,0.966312 -2.761256,2.136448 -3.509584,1.391948 -0.727191,-0.670777 2.448112,-3.420768 4.962412,-4.705581 z m -16.387833,15.201667 -1.711656,2.767992 9.394849,6.083211 1.593029,-3.01138 z m 4.869976,11.097411 -2.12917,0.0048 -2.887168,6.517503 -7.636974,-4.296748 -0.756456,2.896844 9.129859,4.824892 z m -17.107315,13.435878 -0.640908,3.215004 10.880031,2.217576 0.445246,-3.399536 z m 2.093736,8.198979 c -2.190803,-0.0446 -4.338519,1.207484 -4.580335,3.654052 l -0.583905,8.023995 2.323292,1.579664 1.420473,-8.921191 c 0.167568,-1.246644 1.872212,-1.374516 1.756335,-0.20524 l -0.969064,9.834327 5.59716,0.911524 -0.01076,-3.203864 -2.284776,-0.0732 1.095398,-8.187839 c 0.236107,-1.438972 -1.62498,-3.386532 -3.763814,-3.412244 z"
   fill="#e2e5eb"
   id="path6429"
   style="stroke-width:0.769408" />
    <path
   d="m 90.444353,131.05911 c 0.458064,-0.424 0.26716,-1.37541 -0.19596,-2.26355 l -2.844243,-7.41303 c -2.271368,0.81586 -4.295796,-0.12812 -5.086884,-1.86235 L 64.104828,72.017403 c -0.681624,-1.909692 0.15572,-3.984319 2.437592,-4.770135 l -1.279868,-3.498232 -8.228095,-0.0124 c -6.725031,-0.70676 -7.599831,-10.728103 -0.09208,-11.682314 l 9.226563,-0.0152 c 7.147971,0.484395 9.814211,6.462103 11.780251,12.555446 2.372823,-0.10356 5.376931,1.639328 6.442695,3.366764 l 21.430684,35.411118 c 3.2409,6.60784 -1.87387,11.84744 -7.635082,13.6817 l 1.936412,4.87062 c 1.83964,-2.19509 4.53261,-3.49404 6.81999,-3.52002 l 17.63468,-0.0546 c 4.01436,0.16896 7.70148,3.93288 8.28849,7.97206 l 1.20709,0.11264 c 3.53829,0.20688 10.64998,5.52033 10.65076,12.64716 -0.0328,2.33574 -0.97796,2.66213 -1.90505,2.70025 l -2.35609,0.0754 c -1.40616,5.47556 -9.04676,5.33661 -10.9477,-0.01 l -28.55473,-0.0164 c -7.476455,10.94397 -21.369906,-3.07494 -10.516975,-10.77184 z m 3.965932,2.84597 c -1.875656,0.0224 -3.969604,1.22065 -4.057768,4.02354 -0.04164,2.40643 2.204484,3.81817 4.065192,3.82852 5.071195,-0.0482 4.982227,-7.78201 -0.008,-7.85206 z m 39.399025,-3.42458 -38.410353,-0.37156 c 4.462515,0.8437 6.675043,4.6849 6.659303,7.69692 h 38.47187 c -0.066,-2.36974 -3.74293,-7.15529 -6.72082,-7.32536 z m -36.388694,-4.70478 -2.824527,-7.20931 -3.623908,1.30725 2.41074,6.22148 z m 31.279534,0.368 c 0.0104,-1.11981 -2.11732,-3.58448 -3.67361,-3.61099 h -18.80171 c -1.27462,0.0224 -3.66386,2.26083 -3.67248,3.61385 z M 99.02216,112.28086 c 2.32459,-1.35859 3.5314,-4.41493 2.7963,-7.08201 -0.23412,-0.84938 -21.038422,-35.374798 -21.038422,-35.374798 -0.50856,-0.945048 -1.908991,-1.573848 -2.921639,-1.23232 L 67.91928,70.913871 86.002918,117.6279 Z M 87.268022,110.9463 80.615238,93.528473 c -0.778568,-2.228584 2.947,-3.604192 3.667768,-1.396968 l 6.681251,17.484965 c 0.736976,2.20337 -2.782452,3.55049 -3.696235,1.32983 z M 73.981983,65.29254 c -1.027984,-4.250899 -3.747672,-9.139295 -7.713535,-9.280831 l -9.779383,0.18196 c -1.31602,0.0256 -1.184652,3.348652 0,3.310692 l 9.294707,0.24492 c 1.428772,0.22656 2.473788,1.235044 3.103552,2.923699 l 1.507995,3.588888 z"
   fill="url(#linearGradient1039)"
   id="path6431"
   style="fill:url(#linearGradient1039);stroke-width:0.769408" />
</svg>
