<?xml version="1.0" encoding="UTF-8" standalone="no"?>
<svg
   width="863.99994"
   height="863.99994"
   viewBox="0 0 863.99994 863.99994"
   xml:space="preserve"
   version="1.1"
   id="svg7864"
   xmlns:xlink="http://www.w3.org/1999/xlink"
   xmlns="http://www.w3.org/2000/svg"
   xmlns:svg="http://www.w3.org/2000/svg"><defs
   id="defs7868" />
    <linearGradient
   id="linearGradient1591">
        <stop
   style="stop-color:#acb3bf;stop-opacity:0.69794726;"
   offset="0"
   id="stop1589" />
        <stop
   style="stop-color:#2c2d2e;stop-opacity:0.98826981;"
   offset="1"
   id="stop1587" />
    </linearGradient>
    <linearGradient
   id="linearGradient1471">
        <stop
   style="stop-color:#c1d8fa;stop-opacity:1;"
   offset="0"
   id="stop1469" />
        <stop
   style="stop-color:#003fc6;stop-opacity:1;"
   offset="1"
   id="stop1467" />
    </linearGradient>
    <linearGradient
   id="linearGradient1037">
        <stop
   style="stop-color:#003fc6;stop-opacity:1;"
   offset="0"
   id="stop1033" />
        <stop
   style="stop-color:#b7d2fa;stop-opacity:1;"
   offset="1"
   id="stop1035" />
    </linearGradient>
    <linearGradient
   xlink:href="#linearGradient1037"
   id="linearGradient1039"
   x1="565.55945"
   y1="322.36969"
   x2="685.74377"
   y2="436.36969"
   gradientUnits="userSpaceOnUse"
   gradientTransform="matrix(2.7889705,0,0,2.8103826,-1250.1014,-578.63031)" />
    <linearGradient
   xlink:href="#linearGradient1471"
   id="linearGradient1473"
   x1="23.119436"
   y1="16.621147"
   x2="159.27524"
   y2="187.74098"
   gradientUnits="userSpaceOnUse"
   gradientTransform="matrix(3.4269071,0,0,3.4269081,137.64908,135.14494)" />
    <linearGradient
   xlink:href="#linearGradient1591"
   id="linearGradient1593"
   x1="23.119436"
   y1="16.621147"
   x2="159.27524"
   y2="187.74098"
   gradientUnits="userSpaceOnUse"
   gradientTransform="matrix(3.4269071,0,0,3.4269081,137.64908,135.14494)" />
    <circle
   style="display:inline;fill:url(#linearGradient1593);fill-opacity:1;stroke:url(#linearGradient1473);stroke-width:25.9674;stroke-miterlimit:11.9;stroke-dasharray:none;stroke-opacity:1;paint-order:markers fill stroke"
   cx="431.99997"
   cy="431.99997"
   id="ellipse6259"
   r="419.01627" />
    <path
   d="m 192.76456,636.37889 -11.70274,4.60299 27.82173,28.81334 c 3.96838,3.90985 -0.0587,10.67012 -3.88935,7.15857 l -32.23798,-29.50772 -17.94236,18.70543 11.35609,8.38985 6.27428,-8.42562 26.07463,25.66351 c 4.46839,4.67418 16.24851,2.77868 21.96344,-5.21861 5.91852,-8.14353 7.13645,-19.53547 -0.88049,-26.88051 z m 43.80205,45.32824 -16.37549,27.54623 c -9.82528,19.15897 37.19678,54.20526 49.00174,36.93836 l 18.44151,-32.14211 -10.87079,-7.55229 -15.12759,25.30563 c -6.72697,7.53554 -30.65801,-9.12728 -25.73493,-19.15641 l 13.74795,-24.97637 z m 393.4768,10.49448 -43.9685,21.20373 17.26292,43.31663 39.2749,-18.51211 -0.09,-12.49889 -26.28266,11.79736 -3.41789,-6.98677 22.04662,-10.04355 -1.00528,-10.35132 -24.36914,11.13164 -2.05908,-6.68615 21.4504,-10.20812 z m -327.51717,27.4532 -10.49642,10.2797 37.00783,13.9879 c 5.19635,1.81327 2.03886,9.0718 -2.87023,7.55948 l -38.38052,-10.07925 -9.25543,22.8001 13.15864,4.14479 5.64339,-12.72797 19.26652,7.18723 10.21217,14.73239 18.80899,1.66796 -13.81731,-11.86181 c 0,0 12.69223,-3.5449 14.6007,-13.28635 2.03311,-9.96278 -1.5215,-20.82029 -11.79286,-23.98125 z m 267.49906,3.80837 c -17.51612,0.95904 -52.25582,7.68923 -52.80793,18.47631 -0.69731,28.39401 11.69401,18.66969 32.55692,15.82768 5.45239,-0.95891 17.53287,-6.29627 18.10869,-0.80182 0.15719,5.86086 -24.6329,10.29036 -37.6179,12.63495 l -3.06437,12.46312 c 23.65465,-4.3244 56.78783,-11.68041 55.17204,-29.9659 -0.80454,-11.81539 -10.55362,-8.40619 -30.31756,-6.22792 -7.25863,0.93489 -15.34451,2.45102 -16.79148,-2.14045 -1.51404,-4.25259 16.72848,-8.23454 29.347,-7.84579 z m -97.92724,20.26597 c -1.94122,-2.2e-4 -3.9638,0.1202 -6.0663,0.3652 -21.90379,2.79979 -34.12245,12.32542 -33.56909,26.80895 0.99015,13.79159 17.04663,26.03521 37.82587,23.66634 24.20233,-2.75663 35.1634,-12.20334 33.0145,-29.16416 -1.32167,-10.78149 -12.43997,-21.67401 -31.20498,-21.67619 z m -101.98296,0.62278 -6.48919,11.05287 39.09461,5.08979 c 5.45746,0.56798 6.30438,8.45884 1.19246,8.11783 l -42.99787,-2.84198 -3.02961,26.14319 13.95591,-0.58701 -0.0623,-10.61621 35.84306,3.70102 c 6.30673,0.8539 14.47478,-8.11142 14.22633,-18.04683 -0.17485,-10.17989 -5.99169,-19.94198 -16.68752,-20.65249 z m 99.62578,13.90912 c 7.70748,0.0619 16.68132,3.68557 17.65807,11.28198 0.84256,6.64181 -8.63075,10.5141 -19.31505,10.93118 -9.61758,0.32914 -18.35302,-1.945 -19.18335,-8.95542 -0.65044,-6.92098 10.71701,-12.68993 19.32202,-13.2219 0.49987,-0.0251 1.00447,-0.0396 1.51831,-0.0368 z"
   fill="#e2e5eb"
   id="path7856"
   style="stroke-width:3.46232" />
    <path
   d="m 638.06479,144.59796 c -6.04186,-0.10322 -11.26451,2.15474 -15.38415,6.85792 -8.63536,10.57114 -5.45888,30.91056 10.99561,44.22577 19.16337,15.51046 33.39027,16.67956 43.34449,3.00662 7.01714,-9.55527 5.60218,-27.81945 -12.195,-42.14978 -9.87186,-7.77352 -18.9929,-11.80781 -26.76095,-11.94053 z m 1.78172,16.63655 c 5.36456,-0.16248 12.44772,3.02541 16.92321,7.03691 6.01313,5.46258 10.83169,15.34786 6.08706,21.89097 -3.89729,5.35502 -13.28972,1.27682 -21.20772,-6.14207 -7.09596,-6.71131 -11.80383,-14.64159 -7.64696,-20.25166 1.3199,-1.69244 3.40599,-2.4603 5.84441,-2.53415 z m 67.90778,37.85464 -19.80735,48.4422 c -4.58876,10.09654 4.09327,15.22998 11.44625,16.38601 l 50.10406,0.85188 -10.01111,-15.74175 -34.70605,-1.36013 11.76513,-34.74065 z m 49.71583,82.35244 -43.60794,18.05397 16.70826,40.86839 12.38218,-0.11458 -10.59348,-27.34584 7.05076,-3.57929 9.03359,22.9433 10.28841,-1.05948 -10.01115,-25.3629 6.70414,-2.15473 9.22769,22.32049 11.98702,1.18833 z m -22.37941,76.12448 1.06076,14.15969 13.53992,0.78031 0.5477,21.14646 -9.55354,15.19053 5.35913,18.69109 5.65031,-17.61014 c 0,0 7.83843,10.90579 17.31839,9.18445 9.72502,-1.68225 18.21083,-9.06635 17.31145,-20.09413 l -2.31556,-34.64759 -13.10321,-6.3354 0.90127,40.67517 c 0.26176,5.65715 -7.43338,5.27828 -7.8619,0.007 l -4.92235,-40.5751 z"
   fill="#e2e5eb"
   id="path7858"
   style="stroke-width:3.46232" />
    <path
   d="m 383.09488,78.87699 c -18.31272,-0.230362 -49.33661,3.291628 -50.78352,13.307822 -3.30979,28.196788 9.91834,19.728878 30.94852,18.948818 5.516,-0.41908 18.03477,-4.54537 18.10177,0.98071 -0.38373,5.84969 -25.46719,7.83236 -38.60935,8.89098 l -4.1944,12.09802 c 23.94581,-1.98158 57.59879,-6.04236 57.67482,-24.40365 0.28738,-11.840835 -9.72847,-9.411778 -29.60348,-9.184479 -7.31181,0.217769 -15.50364,0.940259 -16.52111,-3.772575 -1.11543,-4.381967 17.41085,-6.558574 29.93627,-4.932274 l 6.53078,-11.833149 c -1.09531,-0.04783 -2.25948,-0.08487 -3.4803,-0.100212 z m -89.73255,25.6063 c -7.19193,-0.0118 -15.56063,2.6227 -24.1057,9.06278 -17.68595,13.63351 -23.72691,28.14649 -16.29925,40.44604 7.47526,11.47499 27.29549,13.9083 44.21111,1.22412 19.70337,-14.7715 24.69289,-28.58573 14.69081,-42.22137 -3.70454,-5.09442 -10.34612,-8.49841 -18.49697,-8.51157 z m -2.11454,16.10682 c 3.49442,0.0811 6.68764,1.2911 8.78398,4.13768 3.91766,5.33914 -2.46135,13.54506 -11.54328,19.37114 -8.19738,5.20409 -16.86724,7.69992 -20.95122,2.03304 -3.8847,-5.67991 3.21367,-16.51294 10.43402,-21.37556 3.78974,-2.51526 8.78366,-4.27047 13.2765,-4.1663 z m -72.28242,26.75882 c -15.02352,9.34842 -42.61691,32.14609 -38.19336,41.93503 12.31117,25.3997 18.8199,10.80947 35.94016,-1.82544 4.37586,-3.49286 12.61024,-14.06951 15.61984,-9.49945 2.80664,5.09679 -17.05381,21.04256 -27.44737,29.41466 l 2.96729,12.48458 c 18.90944,-15.29838 44.80349,-37.86914 35.05275,-53.22413 -6.08918,-10.03803 -13.14408,-2.30258 -29.59656,9.21311 -5.981,4.34839 -12.42565,9.61401 -15.79314,6.26376 -3.27235,-3.01849 11.01653,-15.39345 22.33087,-21.1751 z m -73.74526,68.4075 -7.70246,12.45596 42.27684,27.37446 7.16862,-13.55122 z m 21.9149,49.93834 -9.58127,0.0215 -12.99226,29.32875 -34.36638,-19.33535 -3.40405,13.03579 41.08437,21.71201 z m -76.982937,60.46148 -2.884086,14.46751 48.960153,9.97908 2.0036,-15.29791 z m 9.421806,36.89537 c -9.858614,-0.2007 -19.523336,5.4337 -20.61151,16.44324 l -2.62757,36.10799 10.454818,7.10846 6.392131,-40.14534 c 0.75406,-5.60989 8.424962,-6.1853 7.903512,-0.92351 l -4.360801,44.25444 25.187231,4.10184 -0.0485,-14.41735 -10.28149,-0.32913 4.92929,-36.84528 c 1.06257,-6.47546 -7.31233,-15.23945 -16.937098,-15.35519 z"
   fill="#e2e5eb"
   id="path7860"
   style="stroke-width:3.46232" />
    <path
   d="m 406.99948,589.76596 c 2.06129,-1.90798 1.20214,-6.18937 -0.88168,-10.18595 l -12.79912,-33.35865 c -10.22114,3.67134 -19.33108,-0.57649 -22.89096,-8.38056 L 288.47169,324.07822 c -3.06731,-8.59361 0.70079,-17.92946 10.96918,-21.46561 l -5.75943,-15.74206 -37.02641,-0.0562 c -30.26275,-3.18004 -34.19933,-48.27607 -0.41452,-52.57004 l 41.51955,-0.0683 c 32.16586,2.17979 44.16393,29.07945 53.01113,56.4995 10.6777,-0.46601 24.19618,7.37699 28.99213,15.15044 l 96.43812,159.35006 c 14.58405,29.73526 -8.4324,53.31345 -34.35791,61.56763 l 8.71388,21.91778 c 8.27839,-9.87791 20.39677,-15.72324 30.69,-15.84013 l 79.35607,-0.24578 c 18.06458,0.76035 34.65665,17.69798 37.29818,35.87432 l 5.43188,0.5069 c 15.92234,0.93104 47.92494,24.84145 47.92846,56.91223 -0.14714,10.51079 -4.40082,11.97957 -8.57275,12.15112 l -10.60241,0.33916 c -6.32771,24.64003 -40.71041,24.01469 -49.26464,-0.045 l -128.49633,-0.0744 c -33.64404,49.24786 -96.1646,-13.8372 -47.32639,-48.47331 z m 17.8467,12.80685 c -8.44047,0.10015 -17.86322,5.49291 -18.25996,18.10592 -0.18733,10.82894 9.92018,17.1818 18.29337,17.22834 22.82037,-0.21715 22.42001,-35.01908 -0.0357,-35.33426 z m 177.29566,-15.41065 -172.84666,-1.67198 c 20.08134,3.79662 30.03777,21.08202 29.96693,34.6361 H 632.3855 c -0.29707,-10.6638 -16.84314,-32.19879 -30.24366,-32.96412 z m -163.74917,-21.1715 -12.71038,-32.44189 -16.30759,5.88266 10.84834,27.99665 z m 140.75797,1.65601 c 0.0467,-5.03913 -9.52793,-16.13013 -16.53126,-16.24941 h -84.60773 c -5.73576,0.10121 -16.48736,10.17374 -16.52616,16.26231 z M 445.5996,505.26382 c 10.46073,-6.11367 15.89135,-19.86715 12.58341,-31.86904 -1.05348,-3.82221 -94.67295,-159.18663 -94.67295,-159.18663 -2.28853,-4.25272 -8.59046,-7.08232 -13.14739,-5.54543 l -44.72604,10.44961 81.37639,210.21319 z m -52.89362,-6.00555 -29.93752,-78.38025 c -3.50356,-10.0286 13.2615,-16.21884 16.50494,-6.28634 l 30.06563,78.68237 c 3.3164,9.91518 -12.52102,15.97722 -16.63305,5.98422 z M 332.91882,293.81634 c -4.62594,-19.12905 -16.86454,-41.12683 -34.71092,-41.76376 l -44.00722,0.81877 c -5.9221,0.11585 -5.33094,15.06895 0,14.89813 l 41.82617,1.10208 c 6.42947,1.01957 11.13205,5.55771 13.96598,13.15666 l 6.786,16.14999 z"
   fill="url(#linearGradient1039)"
   id="path7862"
   style="fill:url(#linearGradient1039);stroke-width:3.46232" />
</svg>
