<svg width="48" height="48" viewBox="0 0 48 48" xml:space="preserve" xmlns:xlink="http://www.w3.org/1999/xlink" xmlns="http://www.w3.org/2000/svg" xmlns:svg="http://www.w3.org/2000/svg">
    <linearGradient id="linearGradient1591">
        <stop style="stop-color:#acb3bf;stop-opacity:0.69794726;" offset="0" id="stop1589" />
        <stop style="stop-color:#2c2d2e;stop-opacity:0.98826981;" offset="1" id="stop1587" />
    </linearGradient>
    <linearGradient id="linearGradient1471">
        <stop style="stop-color:#c1d8fa;stop-opacity:1;" offset="0" id="stop1469" />
        <stop style="stop-color:#003fc6;stop-opacity:1;" offset="1" id="stop1467" />
    </linearGradient>
    <linearGradient id="linearGradient1037">
        <stop style="stop-color:#003fc6;stop-opacity:1;" offset="0" id="stop1033" />
        <stop style="stop-color:#b7d2fa;stop-opacity:1;" offset="1" id="stop1035" />
    </linearGradient>
    <linearGradient xlink:href="#linearGradient1037" id="linearGradient1039" x1="565.55945" y1="322.36969" x2="685.74377" y2="436.36969" gradientUnits="userSpaceOnUse" gradientTransform="matrix(0.15494281,0,0,0.15613239,-69.450074,-32.146128)" />
    <linearGradient xlink:href="#linearGradient1471" id="linearGradient1473" x1="23.119436" y1="16.621147" x2="159.27524" y2="187.74098" gradientUnits="userSpaceOnUse" gradientTransform="matrix(0.19038373,0,0,0.1903838,7.6471765,7.5080563)" />
    <linearGradient xlink:href="#linearGradient1591" id="linearGradient1593" x1="23.119436" y1="16.621147" x2="159.27524" y2="187.74098" gradientUnits="userSpaceOnUse" gradientTransform="matrix(0.19038373,0,0,0.1903838,7.6471765,7.5080563)" />
    <ellipse style="display:inline;fill:url(#linearGradient1593);fill-opacity:1;stroke:url(#linearGradient1473);stroke-width:1.44264;stroke-miterlimit:11.9;stroke-dasharray:none;stroke-opacity:1;paint-order:markers fill stroke"  cx="24.000002" cy="24"  rx="23.278683" ry="23.278681" />
    <path d="m 10.709149,35.35439 -0.650153,0.255722 1.545653,1.600743 c 0.220464,0.217212 -0.0032,0.592784 -0.216076,0.397696 l -1.791,-1.639317 -0.996797,1.039191 0.6308935,0.466103 0.3485716,-0.468091 1.4485909,1.425751 c 0.248245,0.259677 0.902695,0.154371 1.220191,-0.289924 0.328807,-0.452416 0.39647,-1.085302 -0.04891,-1.493362 z m 2.433448,2.518235 -0.909751,1.530348 c -0.545848,1.064385 2.066487,3.011403 2.722319,2.052131 l 1.024529,-1.785674 -0.603933,-0.419571 -0.840422,1.405869 c -0.373721,0.418641 -1.703223,-0.507072 -1.429718,-1.064246 l 0.763775,-1.387576 z m 21.859822,0.583028 -2.442694,1.177986 0.959051,2.406477 2.181938,-1.02845 -0.005,-0.694382 -1.460148,0.655409 -0.189883,-0.388154 1.224813,-0.557975 -0.05585,-0.575073 -1.353841,0.618424 -0.114394,-0.371453 1.191689,-0.567116 z m -18.195399,1.525178 -0.583134,0.571096 2.05599,0.777104 c 0.288687,0.100736 0.11327,0.503989 -0.159456,0.419972 l -2.132253,-0.55996 -0.51419,1.266671 0.731036,0.230269 0.313522,-0.707112 1.070363,0.399292 0.567342,0.818467 1.044943,0.09266 -0.767628,-0.658987 c 0,0 0.705123,-0.19694 0.811149,-0.738131 0.112951,-0.553487 -0.08453,-1.156683 -0.655158,-1.332293 z m 14.861059,0.211575 c -0.973118,0.05328 -2.903101,0.42718 -2.933773,1.026463 -0.03874,1.577444 0.649667,1.037204 1.808718,0.879315 0.302911,-0.05327 0.974048,-0.349791 1.006038,-0.04454 0.0087,0.325602 -1.368494,0.571688 -2.089884,0.701942 l -0.170242,0.692394 c 1.314147,-0.240244 3.154879,-0.648913 3.065113,-1.664771 -0.0447,-0.656411 -0.586312,-0.467013 -1.684308,-0.345997 -0.403257,0.05194 -0.852473,0.136167 -0.932861,-0.118913 -0.08411,-0.236257 0.92936,-0.457476 1.630389,-0.435879 z m -5.440401,1.125889 c -0.107847,-1.3e-5 -0.220213,0.0067 -0.337018,0.02029 -1.216876,0.155543 -1.895691,0.684743 -1.864949,1.489384 0.05501,0.7662 0.947034,1.446403 2.101438,1.314797 1.344573,-0.153146 1.953522,-0.677964 1.834139,-1.62023 -0.07343,-0.598973 -0.69111,-1.204112 -1.73361,-1.204233 z m -5.665721,0.0346 -0.360512,0.61405 2.171924,0.282763 c 0.303192,0.03156 0.350243,0.469938 0.06625,0.450991 l -2.388771,-0.157887 -0.168311,1.4524 0.775328,-0.03261 -0.0034,-0.589791 1.991282,0.205613 c 0.350375,0.04744 0.804154,-0.450634 0.790351,-1.002602 -0.0097,-0.565549 -0.332872,-1.107888 -0.927084,-1.147362 z m 5.534766,0.772729 c 0.428193,0.0034 0.926739,0.204755 0.981003,0.626776 0.04681,0.36899 -0.479486,0.584117 -1.073058,0.607289 -0.534309,0.0183 -1.019612,-0.108056 -1.065742,-0.497524 -0.03613,-0.384498 0.59539,-0.704997 1.073447,-0.73455 0.02777,-0.0013 0.0558,-0.0022 0.08435,-0.002 z" fill="#e2e5eb" />
    <path d="m 35.448052,8.033224 c -0.335659,-0.00573 -0.625806,0.119708 -0.854675,0.3809959 -0.479743,0.5872853 -0.303271,1.7172541 0.610867,2.4569881 1.064631,0.861692 1.855015,0.926642 2.408028,0.167034 0.38984,-0.530848 0.311231,-1.5455253 -0.677501,-2.3416554 C 36.386334,8.2647251 35.879609,8.0405975 35.448052,8.033224 Z m 0.09898,0.9242535 c 0.298031,-0.00903 0.69154,0.1680784 0.940179,0.3909389 0.334062,0.3034766 0.60176,0.8526596 0.338169,1.2161656 -0.216516,0.297501 -0.738318,0.07094 -1.178207,-0.341226 -0.39422,-0.3728514 -0.655768,-0.8134217 -0.424831,-1.1250929 0.07333,-0.094024 0.189222,-0.1366832 0.32469,-0.1407856 z m 3.772654,2.1030355 -1.100407,2.691234 c -0.254932,0.560919 0.227403,0.846111 0.635902,0.910334 l 2.783564,0.04733 -0.556173,-0.874541 -1.928114,-0.07556 0.653618,-1.930036 z m 2.761991,4.575137 -2.422663,1.002998 0.928236,2.270467 0.687899,-0.0064 -0.588526,-1.519213 0.391708,-0.19885 0.501867,1.274628 0.571577,-0.05886 -0.556175,-1.40905 0.372453,-0.119707 0.512649,1.240027 0.665946,0.06602 z m -1.243301,4.229139 0.05893,0.786648 0.752217,0.04335 0.03043,1.174804 -0.530752,0.843918 0.29773,1.038395 0.313906,-0.978342 c 0,0 0.435468,0.605878 0.962132,0.510249 0.540279,-0.09346 1.011714,-0.503688 0.961748,-1.116343 l -0.128643,-1.924865 -0.727956,-0.351967 0.05008,2.259732 c 0.01455,0.314287 -0.412965,0.293238 -0.436773,3.78e-4 l -0.273464,-2.254173 z" fill="#e2e5eb" />
    <path d="m 21.283056,4.3820592 c -1.017375,-0.012798 -2.740925,0.1828683 -2.821307,0.7393235 -0.183878,1.5664874 0.551018,1.0960478 1.719362,1.052711 0.306444,-0.023282 1.001931,-0.25252 1.005654,0.054485 -0.02132,0.3249821 -1.414844,0.4351307 -2.144964,0.4939427 l -0.233023,0.6721123 c 1.330323,-0.1100875 3.199933,-0.335686 3.204157,-1.3557576 0.01596,-0.6578241 -0.540472,-0.5228763 -1.644638,-0.5102486 -0.406212,0.012098 -0.861313,0.052236 -0.917839,-0.2095877 -0.06197,-0.2434424 0.96727,-0.3643652 1.663126,-0.2740152 l 0.362822,-0.6573974 c -0.06086,-0.00266 -0.125527,-0.00471 -0.19335,-0.00557 z m -4.985143,1.4225713 c -0.399552,-6.616e-4 -0.864479,0.1457061 -1.339205,0.5034882 -0.982553,0.7574171 -1.318162,1.5636936 -0.905514,2.247002 0.415292,0.6375003 1.516415,0.7726834 2.456172,0.068007 1.094633,-0.8206382 1.371828,-1.5880963 0.816157,-2.345632 -0.205808,-0.283023 -0.574785,-0.4721335 -1.02761,-0.4728652 z m -0.117475,0.8948239 c 0.194136,0.0045 0.371537,0.071728 0.488,0.2298707 0.217648,0.2966197 -0.136742,0.7525032 -0.641293,1.0761751 -0.455411,0.289116 -0.937069,0.4277734 -1.163957,0.1129464 -0.215817,-0.3155499 0.178537,-0.9173851 0.579667,-1.187531 0.210541,-0.1397366 0.487982,-0.2372485 0.737583,-0.2314612 z m -4.01569,1.4866012 c -0.83464,0.5193567 -2.3676065,1.785894 -2.121852,2.3297244 0.683953,1.411094 1.045549,0.600526 1.996675,-0.101413 0.243103,-0.194048 0.700569,-0.7816404 0.867768,-0.5277484 0.155925,0.2831564 -0.947433,1.1690324 -1.524853,1.6341484 l 0.164849,0.693588 C 12.59786,11.364445 14.036417,10.110513 13.49471,9.2574581 13.156422,8.6997902 12.764483,9.1295375 11.850457,9.7692977 11.51818,10.010876 11.160143,10.30341 10.973061,10.117285 10.791263,9.9495906 11.585089,9.2620927 12.213664,8.9408895 Z m -4.096959,3.8004174 -0.427914,0.691998 2.3487125,1.520803 0.3982575,-0.752845 z m 1.2174942,2.774353 -0.5322925,0.0012 -0.7217921,1.629376 -1.9092436,-1.074187 -0.1891142,0.724211 2.282465,1.206223 z m -4.2768292,3.35897 -0.160227,0.803751 2.7200081,0.554394 0.1113115,-0.849884 z m 0.523434,2.049745 c -0.5477008,-0.01115 -1.0846298,0.301871 -1.1450839,0.913513 l -0.1459762,2.005999 0.5808231,0.394916 0.3551184,-2.230298 c 0.041892,-0.311661 0.468053,-0.343629 0.4390837,-0.05131 l -0.2422661,2.458582 1.3992903,0.227881 -0.00269,-0.800966 -0.5711941,-0.0183 0.2738496,-2.04696 C 6.5318694,20.662855 6.0665977,20.175965 5.5318892,20.169537 Z" fill="#e2e5eb" />
    <path d="m 22.611089,32.764782 c 0.114516,-0.106 0.06679,-0.343852 -0.04899,-0.565887 l -0.711061,-1.853258 c -0.567842,0.203964 -1.073949,-0.03203 -1.271721,-0.465587 l -4.55311,-11.875699 c -0.170406,-0.477423 0.03893,-0.99608 0.609398,-1.192534 l -0.319967,-0.874558 -2.057024,-0.0031 c -1.681258,-0.17669 -1.899958,-2.682026 -0.02302,-2.920579 l 2.306641,-0.0038 c 1.786993,0.121099 2.453553,1.615526 2.945063,3.138862 0.593206,-0.02589 1.344233,0.409832 1.610674,0.841691 l 5.357674,8.852783 c 0.810225,1.651959 -0.468467,2.961859 -1.908773,3.420424 l 0.484104,1.217657 c 0.459911,-0.548773 1.133155,-0.873512 1.705,-0.880007 l 4.40867,-0.01365 c 1.003589,0.04224 1.92537,0.983221 2.072123,1.993017 l 0.301771,0.02816 c 0.884574,0.05172 2.662496,1.380082 2.662692,3.161791 -0.0082,0.583934 -0.24449,0.665532 -0.476264,0.675062 l -0.589022,0.01885 c -0.35154,1.36889 -2.261691,1.334151 -2.736925,-0.0025 l -7.138685,-0.0041 c -1.869115,2.735992 -5.342478,-0.768735 -2.629245,-2.692961 z m 0.991483,0.711492 c -0.468914,0.0056 -0.992401,0.305162 -1.014442,1.005886 -0.01041,0.601608 0.551121,0.954543 1.016298,0.957129 1.267799,-0.01206 1.245557,-1.945503 -0.002,-1.963015 z m 9.849759,-0.856145 -9.602591,-0.09289 c 1.115629,0.210925 1.668764,1.171226 1.664829,1.92423 h 9.617967 c -0.0165,-0.592436 -0.935731,-1.788823 -1.680205,-1.83134 z m -9.097176,-1.176196 -0.706132,-1.802327 -0.905977,0.326812 0.602685,1.555371 z m 7.819887,0.092 c 0.0026,-0.279952 -0.52933,-0.89612 -0.918403,-0.902747 H 26.55621 c -0.318653,0.0056 -0.915964,0.565207 -0.91812,0.903464 z m -7.419501,-3.465715 c 0.58115,-0.339648 0.882853,-1.103731 0.699078,-1.770502 -0.05853,-0.212346 -5.259609,-8.843703 -5.259609,-8.843703 -0.12714,-0.236262 -0.477248,-0.393462 -0.73041,-0.30808 l -2.48478,0.580535 4.52091,11.678511 z m -2.938535,-0.33364 -1.663196,-4.354459 c -0.194642,-0.557146 0.73675,-0.901048 0.916942,-0.349242 l 1.670313,4.371243 c 0.184244,0.550844 -0.695613,0.887623 -0.924059,0.332458 z M 18.495496,16.323135 C 18.2385,15.26041 17.558578,14.038311 16.567112,14.002927 l -2.444846,0.04549 c -0.329005,0.0064 -0.296163,0.837163 0,0.827673 l 2.323677,0.06123 c 0.357193,0.05664 0.618447,0.308761 0.775888,0.730925 l 0.376999,0.897222 z" fill="url(#linearGradient1039)" />
</svg>