<svg width="512" height="512" viewBox="0 0 512 512" xml:space="preserve" xmlns="http://www.w3.org/2000/svg">
    <g transform="matrix(10.976512,0,0,11.12046,-7.5811446,-4.3547815)">
        <path d="m 23.033141,26.158265 c -0.333062,0 -0.626834,0.07693 -0.881258,0.23092 -0.254424,0.154002 -0.4441,0.391758 -0.568998,0.713156 l 0.128304,0.03262 c 0.196601,-0.257787 0.473044,-0.386615 0.829234,-0.386615 0.217416,0 0.401273,0.05855 0.551615,0.175751 0.150343,0.115506 0.225473,0.261117 0.225473,0.436879 0,0.24105 -0.09127,0.487974 -0.273992,0.740742 -0.180408,0.252763 -0.695071,0.744944 -1.543918,1.47646 v 0.05517 h 2.76857 l 0.263743,-0.984203 h -0.124931 c -0.07862,0.115504 -0.14226,0.191586 -0.190829,0.228416 -0.04856,0.03515 -0.110996,0.06027 -0.187335,0.07533 -0.07403,0.01508 -0.23591,0.02256 -0.485706,0.02256 h -1.01657 c 0.786399,-0.554078 1.296433,-0.985906 1.53004,-1.295585 0.171158,-0.22933 0.256735,-0.455302 0.256735,-0.677937 0,-0.122199 -0.05554,-0.252801 -0.166572,-0.39174 -0.11102,-0.140613 -0.264853,-0.2511 -0.46145,-0.331446 -0.196598,-0.08036 -0.413924,-0.120479 -0.652155,-0.120477 z m -2.930997,2.880638 -8.655083,17.393305 2.828766,6.53e-4 2.45852,-5.071458 5.852913,-0.03621 2.186471,5.103291 h 2.624961 z m -0.16761,4.225508 2.025347,6.251688 -4.672234,0.01724 z" fill="#000000" />
        <path d="M 13.036937,0.86097425 1.0898606,18.754786 c -0.48381343,0.552924 -0.57622423,1.201111 -0.00648,1.658785 l 1.8192682,1.210114 1.9497045,1.960288 8.1993427,8.172367 c 0.655764,0.689338 1.927776,0.779669 2.766122,-0.0017 L 30.013092,17.653253 c 0.639877,-0.646895 0.691728,-2.069102 -0.0047,-2.830315 L 20.477981,5.2792895 C 19.976262,4.7525366 19.319889,4.8677051 18.901483,5.2908983 L 6.4650353,17.743056 16.296189,3.0598352 C 16.608822,2.5700274 16.514156,1.8708488 16.020975,1.5202174 L 14.491829,0.53230525 C 14.103614,0.28627986 13.388958,0.34306766 13.036937,0.86097215 Z m 1.142917,0.55988005 1.194064,0.8423695 c 0.27449,0.211315 0.108809,0.4849299 -0.06181,0.5289114 l -2.85353,0.5931069 1.306747,-1.9555096 c 0.06201,-0.1002861 0.285838,-0.090516 0.414526,-0.00888 z m -0.223655,3.4879592 -0.89939,1.3753748 -2.909873,0.6197415 0.870026,-1.362745 z m 5.876798,1.0643979 1.111408,1.1000789 c 0.1375,0.1394479 0.155776,0.2599651 0.03789,0.3756015 l -1.584689,1.6164435 0.03209,-2.8586548 c 0.0051,-0.3441837 0.286851,-0.355145 0.403283,-0.2334691 z m 1.993386,1.9554229 7.433116,7.4385827 c 0.542077,0.578685 0.382001,1.265055 -0.05497,1.707613 L 15.206273,31.031433 c -0.612165,0.568783 -1.093689,0.424182 -1.677568,-0.08263 L 6.1730943,23.60139 Z m -4.264425,0.03142 -0.02936,2.9665567 -1.114165,1.112116 0.04848,-2.9679227 z m -5.951209,0.46233 -0.902121,1.3367945 -2.9597257,0.6320312 0.944121,-1.3630867 z m 2.98124,2.5001277 -0.03006,2.997288 -1.154457,1.123383 0.05019,-2.998308 z m -5.2962977,0.963924 -0.906901,1.337136 -2.956654,0.67164 0.905194,-1.391767 z m 2.3632057,1.961997 -0.06795,3.023236 -1.187579,1.222407 0.07922,-3.05909 z m -4.6666567,1.513327 -0.947878,1.350792 -2.9426525,0.644326 0.89222,-1.351136 z m 1.623957,1.506837 -0.03892,3.036553 -1.133626,1.113824 0.04371,-3.009237 z m 11.3352587,0.2397 c -0.101839,4.98e-4 -0.209732,0.01507 -0.322674,0.04575 l -5.599169,1.491135 c -0.889416,0.292115 -1.048888,1.149054 -0.412134,1.759854 l 3.992966,4.075939 c 0.672926,0.60878 1.529856,0.488417 1.79161,-0.550766 l 1.502059,-5.567416 C 21.08349,17.78502 20.664334,17.104791 19.951456,17.10829 Z M 5.4778883,19.013609 c 0.218374,-0.01816 0.332726,0.126209 0.307993,0.307991 l -0.297064,2.796852 c -0.02595,0.371593 -0.386349,0.444743 -0.570228,0.278628 L 2.3515327,19.810904 c -0.1669875,-0.14655 -0.046879,-0.503688 0.1570681,-0.527888 z m -2.3352055,0.413158 c -0.259078,9.03e-4 -0.444534,0.207742 -0.443209,0.434673 8.75e-4,0.242717 0.18502,0.441538 0.428528,0.442866 0.256098,-0.0017 0.444709,-0.216948 0.443547,-0.44628 9.5e-4,-0.239058 -0.178898,-0.430657 -0.428866,-0.431259 z m 1.7789775,1.775564 c -0.256585,9.02e-4 -0.440358,0.209184 -0.439109,0.437401 8.75e-4,0.244095 0.18289,0.443578 0.424087,0.444915 0.253464,-0.0017 0.440148,-0.217692 0.43911,-0.448329 8.74e-4,-0.240412 -0.176652,-0.433382 -0.424088,-0.433987 z" /><path d="m 30.811518,28.470867 -0.0048,-16.870682 16.527407,-4.4782103 0.0016,20.8754393 c -0.02784,4.150134 -5.871544,7.47693 -8.167202,4.587792 -1.581757,-2.361573 -0.201109,-8.36495 5.991395,-7.861684 l -8.66e-4,-11.871606 -12.12989,3.183106 -0.004,16.085068 c -0.0029,2.852074 -5.142455,7.39602 -8.285697,4.148409 -2.129262,-2.554584 1.33889,-8.69074 6.072096,-7.797632 z" fill="#1650DA" />
    </g>
</svg>