<svg width="250" height="250" viewBox="0 0 250 250" xmlns="http://www.w3.org/2000/svg">
  <g transform="translate(-279.89025,-405.38478)">
    <g transform="matrix(0.59517688,0,0,0.54731845,-392.03076,427.30342)">
      <path d="m 1335.1797,-40.037109 c -104.3309,-1.06078 -206.8985,80.498327 -190.7227,262.624999 -7.6474,0.15936 -15.5136,5.85139 -15.5136,12.58789 l 0.012,140.44922 c -0.021,8.17363 4.8579,13.46443 14.1074,13.42773 l 27.0137,-0.0195 c 8.4142,-0.01 14.6345,-6.63819 14.3965,-15.04492 l 0.1132,-138.73047 c 0.21,-2.21914 -0.4091,-5.94136 -2.8125,-5.88476 -37.0251,-304.11705 353.8616,-303.27166 314.5918,-0.28516 -1.76,0.15809 -3.3519,3.60267 -3.3789,6.2832 l 0.3985,142.0625 c 0.038,5.3174 5.2246,11.89657 14.5214,11.88477 l 28.5626,-0.0352 c 6.4322,0.0272 12.5015,-5.36918 12.5175,-12.59765 l -0.02,-139.25 c 0.01,-7.0306 -4.9557,-14.87418 -15.7227,-14.86328 26.0579,-166.727274 -87.0025,-261.480162 -198.0644,-262.609379 z m 144.7012,263.128909 -12.8575,0.0137 c -5.8352,0.0491 -9.6477,4.35507 -9.5273,9.59765 l -0.1016,144.91602 c 0.049,7.25898 5.1244,11.53548 10.3907,11.54688 l 11.5507,-0.002 c 4.9824,-0.048 9.7796,-4.53107 9.7696,-11.55273 l -0.1153,-144.9375 c -0.026,-5.18567 -3.8169,-9.48148 -9.1093,-9.58203 z m -268.6036,0.0469 -12.8574,0.0117 c -5.8352,0.0491 -9.6458,4.35703 -9.5254,9.59961 l -0.1035,144.91602 c 0.049,7.25898 5.1263,11.53547 10.3926,11.54687 l 11.5508,-0.004 c 4.9824,-0.048 9.7776,-4.53107 9.7676,-11.55273 l -0.1153,-144.9375 c -0.026,-5.18566 -3.817,-9.47953 -9.1094,-9.58008 z" fill="#000000" />
      <path d="m 1336.9592,272.39619 -62.1752,-133.3861 c 57.8216,-49.695623 148.0339,-28.17413 169.6519,47.31611 -24.434,-33.81376 -68.1685,-69.90859 -134.2935,-38.55632 24.4492,49.53054 46.8836,100.85205 63.9716,156.92585 36.1505,100.17174 -79.893,144.37004 -127.6876,81.79486 -46.9727,-64.74558 20.2593,-146.6161 90.5328,-114.0944 z" fill="#CA0101" />
      <path d="m 1374.5866,273.6922 -62.1752,-133.3861 c 57.8216,-49.695617 148.0339,-28.17413 169.6519,47.31611 -24.434,-33.81376 -68.1685,-69.90859 -134.2935,-38.55632 24.4492,49.53054 46.8836,100.85205 63.9716,156.92585 36.1505,100.17174 -79.893,144.37004 -127.6876,81.79486 -46.9727,-64.74558 20.2593,-146.6161 90.5328,-114.0944 z" fill="#0B4BFF" />
    </g>
  </g>
</svg>