<svg
   width="512"
   height="512"
   viewBox="0 0 512 512"
   xml:space="preserve"
   xmlns:xlink="http://www.w3.org/1999/xlink"
   xmlns="http://www.w3.org/2000/svg"
   xmlns:svg="http://www.w3.org/2000/svg">
    <linearGradient
   id="linearGradient1591">
        <stop
   style="stop-color:#acb3bf;stop-opacity:0.69794726;"
   offset="0"
   id="stop1589" />
        <stop
   style="stop-color:#2c2d2e;stop-opacity:0.98826981;"
   offset="1"
   id="stop1587" />
    </linearGradient>
    <linearGradient
   id="linearGradient1471">
        <stop
   style="stop-color:#c1d8fa;stop-opacity:1;"
   offset="0"
   id="stop1469" />
        <stop
   style="stop-color:#003fc6;stop-opacity:1;"
   offset="1"
   id="stop1467" />
    </linearGradient>
    <linearGradient
   id="linearGradient1037">
        <stop
   style="stop-color:#003fc6;stop-opacity:1;"
   offset="0"
   id="stop1033" />
        <stop
   style="stop-color:#b7d2fa;stop-opacity:1;"
   offset="1"
   id="stop1035" />
    </linearGradient>
    <linearGradient
   xlink:href="#linearGradient1037"
   id="linearGradient1039"
   x1="565.55945"
   y1="322.36969"
   x2="685.74377"
   y2="436.36969"
   gradientUnits="userSpaceOnUse"
   gradientTransform="matrix(1.6527231,0,0,1.665412,-740.80066,-342.89195)" />
    <linearGradient
   xlink:href="#linearGradient1471"
   id="linearGradient1473"
   x1="23.119436"
   y1="16.621147"
   x2="159.27524"
   y2="187.74098"
   gradientUnits="userSpaceOnUse"
   gradientTransform="matrix(2.0307595,0,0,2.0307603,81.569907,80.085958)" />
    <linearGradient
   xlink:href="#linearGradient1591"
   id="linearGradient1593"
   x1="23.119436"
   y1="16.621147"
   x2="159.27524"
   y2="187.74098"
   gradientUnits="userSpaceOnUse"
   gradientTransform="matrix(2.0307595,0,0,2.0307603,81.569907,80.085958)" />
    <ellipse
   style="display:inline;fill:url(#linearGradient1593);fill-opacity:1;stroke:url(#linearGradient1473);stroke-width:15.3882;stroke-miterlimit:11.9;stroke-dasharray:none;stroke-opacity:1;paint-order:markers fill stroke"
   cx="256.00003"
   cy="256"
   rx="248.30592"
   ry="248.30589"
   id="ellipse6259" />
    <path
   d="m 114.23093,377.11344 -6.93496,2.72771 16.48696,17.07459 c 2.35162,2.31693 -0.0341,6.32304 -2.30481,4.2421 l -19.10399,-17.48605 -10.632498,11.08469 6.72953,4.97176 3.718088,-4.99296 15.45163,15.208 c 2.64795,2.7699 9.62875,1.64664 13.01537,-3.0925 3.50728,-4.82579 4.22902,-11.57656 -0.5217,-15.9292 z m 25.95678,26.86118 -9.70401,16.3237 c -5.82238,11.35344 22.04252,32.12163 29.03806,21.88941 l 10.92831,-19.0472 -6.44195,-4.47541 -8.9645,14.99592 c -3.98636,4.46552 -18.16771,-5.40877 -15.25032,-11.35195 l 8.14693,-14.80079 z m 233.17139,6.21896 -26.05542,12.56519 10.2299,25.66907 23.274,-10.97013 -0.0533,-7.40672 -15.5749,6.99101 -2.02542,-4.14029 13.06467,-5.95174 -0.59573,-6.13413 -14.44099,6.59653 -1.22019,-3.96216 12.71134,-6.04925 z m -194.08422,16.26855 -6.22009,6.09171 21.93055,8.28909 c 3.07933,1.07454 1.20822,5.3759 -1.70086,4.47971 l -22.74403,-5.97291 -5.48469,13.51118 7.79771,2.45618 3.34424,-7.54253 11.4172,4.25912 6.05165,8.73032 11.14606,0.98837 -8.18804,-7.0292 c 0,0 7.52132,-2.10069 8.65226,-7.87338 1.20481,-5.90387 -0.90165,-12.33795 -6.98835,-14.21112 z m 158.51792,2.2568 c -10.37992,0.56832 -30.96639,4.55659 -31.29357,10.94896 -0.41322,16.82606 6.92979,11.0635 19.29299,9.37936 3.23104,-0.56821 10.38984,-3.73112 10.73106,-0.47509 0.0928,3.47307 -14.59725,6.098 -22.29207,7.48736 l -1.81592,7.38555 c 14.01757,-2.56262 33.65202,-6.92174 32.69453,-17.75755 -0.4768,-7.00173 -6.254,-4.98149 -17.96595,-3.69064 -4.30141,0.55403 -9.09304,1.45245 -9.95051,-1.2684 -0.89717,-2.52008 9.91315,-4.87976 17.3908,-4.64939 z m -58.03093,12.0095 c -1.15037,-1.4e-4 -2.34893,0.0715 -3.59485,0.21653 -12.98,1.65912 -20.22069,7.30392 -19.89278,15.88677 0.58677,8.17278 10.10169,15.4283 22.41531,14.02448 14.34211,-1.63354 20.83758,-7.2316 19.56416,-17.28245 -0.78325,-6.38904 -7.37184,-12.84384 -18.49184,-12.84515 z m -60.43433,0.36906 -3.84547,6.54987 23.16719,3.01613 c 3.23405,0.33664 3.73593,5.01267 0.70667,4.81059 l -25.48022,-1.68413 -1.79532,15.49226 8.27016,-0.34784 -0.0363,-6.29112 21.24034,2.1932 c 3.73733,0.50603 8.57764,-4.80674 8.43041,-10.6944 -0.10347,-6.03253 -3.55064,-11.81746 -9.8889,-12.23853 z m 59.03748,8.24246 c 4.56739,0.0363 9.8852,2.18405 10.46403,6.6856 0.4993,3.93589 -5.11451,6.23058 -11.44595,6.47773 -5.69931,0.1952 -10.87585,-1.15259 -11.3679,-5.30691 -0.38539,-4.1013 6.35081,-7.51997 11.45009,-7.8352 0.29621,-0.0133 0.5952,-0.024 0.89973,-0.0213 z"
   fill="#e2e5eb"
   id="path6425"
   style="stroke-width:2.05175" />
    <path
   d="m 378.11251,85.687746 c -3.58037,-0.06112 -6.67525,1.276883 -9.11653,4.063955 -5.11726,6.264376 -3.23488,18.317369 6.51592,26.207859 11.35605,9.19138 19.78682,9.88418 25.68562,1.7817 4.1583,-5.66238 3.31979,-16.4856 -7.22666,-24.977647 -5.85,-4.606523 -11.25507,-6.997216 -15.85835,-7.075867 z m 1.05579,9.858701 c 3.17898,-0.09632 7.37642,1.792838 10.02858,4.170016 3.56331,3.237077 6.41878,9.095027 3.60712,12.972427 -2.30949,3.17334 -7.87538,0.75669 -12.56754,-3.63975 -4.20502,-3.97708 -6.99486,-8.67649 -4.53152,-12.000981 0.78218,-1.002922 2.01837,-1.457952 3.46336,-1.501712 z m 40.24162,22.432363 -11.73765,28.7065 c -2.71928,5.98313 2.42563,9.02518 6.78293,9.71023 l 29.69136,0.50485 -5.93251,-9.32844 -20.56655,-0.80597 6.97191,-20.58705 z m 29.46125,48.80146 -25.84173,10.69864 9.90117,24.21831 7.3376,-0.0683 -6.27762,-16.20494 4.17821,-2.12106 5.35325,13.59602 6.09683,-0.62784 -5.93253,-15.02986 3.97282,-1.27687 5.46827,13.22695 7.10341,0.70421 z m -13.26189,45.11081 0.62859,8.39091 8.02365,0.4624 0.32459,12.53124 -5.66136,9.00179 3.17578,11.07621 3.34835,-10.43564 c 0,0 4.64499,6.46269 10.26275,5.44265 5.76296,-0.9969 10.7916,-5.37267 10.25864,-11.90766 l -1.37222,-20.53189 -7.76485,-3.75431 0.53419,24.1038 c 0.1552,3.3524 -4.40496,3.12788 -4.65891,0.004 l -2.91696,-24.04451 z"
   fill="#e2e5eb"
   id="path6427"
   style="stroke-width:2.05175" />
    <path
   d="m 227.01926,46.741993 c -10.852,-0.136507 -29.23653,1.950595 -30.09394,7.886117 -1.96136,16.709197 5.87753,11.691173 18.33986,11.228914 3.26873,-0.248346 10.68726,-2.693546 10.72697,0.581174 -0.22741,3.466474 -15.09166,4.641394 -22.87961,5.268722 l -2.48558,7.169197 c 14.19011,-1.174266 34.13262,-3.58065 34.17767,-14.461413 0.17024,-7.016789 -5.76503,-5.577346 -17.5428,-5.44265 -4.33293,0.12904 -9.18734,0.557184 -9.79028,-2.235603 -0.66101,-2.59672 10.31754,-3.886562 17.74001,-2.922829 l 3.8701,-7.012237 c -0.64917,-0.02837 -1.33896,-0.05024 -2.0624,-0.05941 z m -53.17485,15.174093 c -4.26189,-0.0069 -9.22111,1.554197 -14.28485,5.370538 -10.48057,8.079115 -14.0604,16.679397 -9.65882,23.968018 4.42978,6.800003 16.17509,8.241955 26.19917,0.725408 11.67608,-8.753472 14.63282,-16.93969 8.70567,-25.020071 -2.19529,-3.018912 -6.13104,-5.036091 -10.96117,-5.043893 z m -1.25307,9.544786 c 2.07078,0.048 3.96306,0.765099 5.20533,2.451952 2.32158,3.163944 -1.45858,8.026701 -6.84046,11.4792 -4.85771,3.083904 -9.99539,4.562917 -12.41553,1.204762 -2.30205,-3.365866 1.90439,-9.785439 6.18311,-12.666997 2.24577,-1.490522 5.20514,-2.530647 7.86755,-2.468917 z m -42.83402,15.857077 c -8.90283,5.539803 -25.25446,19.049531 -22.63308,24.850381 7.29549,15.05167 11.15252,6.40561 21.29786,-1.08174 2.5931,-2.06984 7.47273,-8.33749 9.25619,-5.62931 1.6632,3.02033 -10.10595,12.46967 -16.2651,17.43091 l 1.75839,7.39827 c 11.2056,-9.0657 26.55021,-22.44098 20.772,-31.540221 -3.60841,-5.948455 -7.78909,-1.364485 -17.5387,5.459621 -3.54428,2.57683 -7.36335,5.69719 -9.35889,3.71186 -1.93917,-1.78874 6.5283,-9.122043 13.2331,-12.548211 z m -43.70088,40.537771 -4.564416,7.38131 25.052926,16.2219 4.24807,-8.03035 z m 12.986602,29.5931 -5.677787,0.0128 -7.699114,17.38 -20.365263,-11.45799 -2.017216,7.72492 24.34629,12.86637 z m -45.619505,35.829 -1.709088,8.57335 29.013415,5.91353 1.187323,-9.06543 z m 5.583296,21.86395 c -5.842142,-0.11894 -11.569384,3.21995 -12.214227,9.74413 l -1.55708,21.39732 6.195446,4.21244 3.787927,-23.78984 c 0.446848,-3.32439 4.992566,-3.66538 4.68356,-0.54731 l -2.58417,26.22487 14.925759,2.43073 -0.02869,-8.54363 -6.092736,-0.1952 2.921061,-21.83424 c 0.629619,-3.83726 -4.33328,-9.03075 -10.036837,-9.09932 z"
   fill="#e2e5eb"
   id="path6429"
   style="stroke-width:2.05175" />
    <path
   d="m 241.18494,349.49096 c 1.2215,-1.13066 0.71243,-3.66776 -0.52256,-6.03613 l -7.58465,-19.76808 c -6.05698,2.17563 -11.45545,-0.34165 -13.56502,-4.96627 l -48.5665,-126.67407 c -1.81766,-5.09251 0.41525,-10.62485 6.50024,-12.72036 l -3.41298,-9.32862 -21.94158,-0.0331 c -17.93342,-1.88469 -20.26622,-28.60827 -0.24555,-31.15283 l 24.60417,-0.0405 c 19.06125,1.29172 26.17123,17.23228 31.414,33.48119 6.32753,-0.27616 14.33848,4.37154 17.18052,8.97804 l 57.1485,94.42965 c 8.6424,17.62091 -4.99699,31.59318 -20.36023,36.48454 l 5.16377,12.98831 c 4.90571,-5.85357 12.08696,-9.31744 18.18664,-9.38672 l 47.02581,-0.1456 c 10.70496,0.45056 20.53728,10.48768 22.10264,21.25883 l 3.21891,0.30037 c 9.43544,0.55168 28.39995,14.72088 28.40203,33.72576 -0.0875,6.22864 -2.6079,7.09902 -5.08014,7.20067 l -6.2829,0.20107 c -3.74976,14.60149 -24.1247,14.23096 -29.19387,-0.0267 l -76.14594,-0.0437 c -19.93722,29.18392 -56.98643,-8.19984 -28.04528,-28.72491 z m 10.57582,7.58926 c -5.00175,0.0597 -10.58561,3.25506 -10.82072,10.72944 -0.11104,6.41714 5.87863,10.18178 10.84052,10.20938 13.52318,-0.12853 13.28593,-20.75202 -0.0213,-20.93882 z M 356.82483,347.948 254.39722,346.95718 c 11.90004,2.24986 17.80012,12.49306 17.75815,20.52512 h 102.59165 c -0.176,-6.31931 -9.98115,-19.08078 -17.92219,-19.5343 z m -97.03652,-12.54608 -7.53207,-19.22482 -9.66376,3.486 6.42864,16.59061 z m 83.41209,0.98134 c 0.0277,-2.98616 -5.64618,-9.55862 -9.79629,-9.62931 h -50.13789 c -3.39899,0.0597 -9.77029,6.02888 -9.79328,9.63693 z m -79.14131,-36.96763 c 6.19892,-3.6229 9.41708,-11.77314 7.45681,-18.88536 -0.62432,-2.26501 -56.10247,-94.3328 -56.10247,-94.3328 -1.35616,-2.52012 -5.09064,-4.19692 -7.79103,-3.28618 l -26.50432,6.19237 48.22303,124.57075 z m -31.34437,-3.55882 -17.74075,-46.44755 c -2.07618,-5.94289 7.85866,-9.61118 9.78071,-3.72525 l 17.81667,46.62658 c 1.96527,5.87566 -7.41987,9.46798 -9.85663,3.54622 z M 197.28529,174.11344 C 194.544,162.77771 187.2915,149.74199 176.71586,149.36456 l -26.07835,0.48523 c -3.50939,0.0683 -3.15907,8.92973 0,8.82851 l 24.78588,0.65312 c 3.81006,0.60416 6.59677,3.29345 8.27614,7.79653 l 4.02132,9.57037 z"
   fill="url(#linearGradient1039)"
   id="path6431"
   style="fill:url(#linearGradient1039);stroke-width:2.05175" />
</svg>
